<?xml version="1.0" encoding="iso-8859-1"?>
<!-- Generator: Adobe Illustrator 19.0.0, SVG Export Plug-In . SVG Version: 6.00 Build 0)  -->
<svg version="1.1" id="Capa_1" xmlns="http://www.w3.org/2000/svg" xmlns:xlink="http://www.w3.org/1999/xlink" x="0px" y="0px"
	 viewBox="0 0 493.712 493.712" style="enable-background:new 0 0 493.712 493.712;" xml:space="preserve">
<g>
	<g>
		<g>
			<path d="M198.888,124.095h16c0,17.673,14.327,32,32,32c17.673,0,32-14.327,32-32h16c4.418-0.001,7.999-3.583,7.998-8.002
				c0-2.121-0.843-4.154-2.342-5.654l-21.856-21.856c-1.973-17.563-17.809-30.201-35.372-28.228
				c-14.844,1.667-26.56,13.383-28.228,28.228l-21.856,21.856c-3.124,3.125-3.123,8.19,0.002,11.314
				C194.734,123.252,196.767,124.094,198.888,124.095z M246.888,140.095c-8.837,0-16-7.163-16-16h32
				C262.888,132.931,255.725,140.095,246.888,140.095z M228.544,97.751c1.5-1.5,2.344-3.534,2.344-5.656c0-8.837,7.163-16,16-16
				s16,7.163,16,16c0,2.122,0.844,4.156,2.344,5.656l10.344,10.344H218.2L228.544,97.751z"/>
			<path d="M382.888,436.095v-432h-104c-4.418-0.001-8.001,3.58-8.002,7.998c-0.001,2.675,1.336,5.174,3.562,6.658l92.44,61.624
				v88.408l-24,24l-18.344-18.344c-1.5-1.5-3.534-2.344-5.656-2.344h-24v-8h-16v8h-56v-8h-16v8h-16
				c-2.122,0-4.156,0.844-5.656,2.344l-56,56c-3.123,3.124-3.123,8.188,0,11.312l36,36c9.751,9.751,25.561,9.751,35.312,0
				c9.751-9.751,9.751-25.561,0-35.312l-6.344-6.344l10.344-10.344l-11.312-11.312l-16,16c-3.123,3.124-3.123,8.188,0,11.312l12,12
				c3.504,3.504,3.504,9.184,0,12.688c-3.504,3.504-9.184,3.504-12.688,0L146.2,236.095l48-48h12.688v48h16v-16h56v40h16v-72h20.688
				l21.656,21.656c3.124,3.123,8.188,3.123,11.312,0l18.344-18.344v25.376l-24,24l-26.344-26.344l-11.312,11.312l32,32
				c3.124,3.123,8.188,3.123,11.312,0l18.344-18.344v196.688H260.08c1.825-3.739,2.785-7.84,2.808-12v-84h32v24
				c0,15.464,12.536,28,28,28c15.464,0,28-12.536,28-28v-72c0-4.418-3.582-8-8-8h-48v-8h-16v16c0,4.418,3.582,8,8,8h48v64
				c0,6.627-5.373,12-12,12c-6.627,0-12-5.373-12-12v-32c0-4.418-3.582-8-8-8h-48c-4.418,0-8,3.582-8,8v92c0,6.627-5.373,12-12,12
				c-6.627,0-12-5.373-12-12v-140h-16v140c0.023,4.16,0.983,8.261,2.808,12H94.888c-2.122,0-4.156,0.844-5.656,2.344l-40,40
				l11.312,11.312L98.2,452.095h281.376l37.656,37.656l11.312-11.312l-40-40C387.044,436.938,385.01,436.095,382.888,436.095z
				 M278.888,204.095h-56v-16h56V204.095z M366.888,61.151l-61.6-41.056h61.6V61.151z"/>
			<path d="M423.608,308.535l22.68,36.848l-7.4,7.4l-10.344-10.344c-3.124-3.123-8.188-3.123-11.312,0l-16,16l11.312,11.312
				l10.344-10.344l10.344,10.344c3.124,3.123,8.188,3.123,11.312,0l10.4-10.4l25.168,40.896l13.6-8.384l-64-104
				c-2.312-3.765-7.239-4.943-11.004-2.63c-1.275,0.783-2.305,1.908-2.972,3.246l-24,48l14.32,7.152L423.608,308.535z"/>
			<path d="M68.544,353.751l18.344-18.344l18.344,18.344c3.124,3.123,8.188,3.123,11.312,0l16.248-16.248l51.2,86.664l13.776-8.144
				l-104-176c-1.439-2.433-4.054-3.926-6.88-3.928c-2.832,0.003-5.452,1.503-6.888,3.944l-80,136l13.792,8.112l27.344-46.456
				l16.096,16.056C60.356,356.874,65.42,356.874,68.544,353.751z M86.888,259.847l37.504,63.448l-13.504,13.488l-18.344-18.344
				c-3.124-3.123-8.188-3.123-11.312,0l-18.344,18.344l-13.376-13.376L86.888,259.847z"/>
			<path d="M78.888,92.095c0-4.418-3.582-8-8-8C53.215,84.127,38.862,69.826,38.83,52.153s14.269-32.026,31.942-32.058
				c15.587-0.028,28.927,11.178,31.588,26.536c0.737,4.356,4.866,7.29,9.222,6.553c0.317-0.054,0.63-0.126,0.938-0.217
				c2.071-0.589,4.215-0.882,6.368-0.872c13.228-0.024,23.971,10.681,23.995,23.909c0.008,4.247-1.114,8.42-3.251,12.091
				c-2.209,3.826-0.898,8.719,2.928,10.928c1.218,0.703,2.601,1.073,4.008,1.072h36.32v-16h-24.8c0.538-2.633,0.806-5.313,0.8-8
				c-0.026-22.08-17.92-39.974-40-40c-0.92,0-1.832,0-2.744,0.096C107.427,11.155,80.065-2.073,55.029,6.644
				c-25.035,8.717-38.264,36.079-29.547,61.115c2.101,6.034,5.386,11.588,9.661,16.336H6.888v16h64
				C75.306,100.095,78.888,96.513,78.888,92.095z"/>
			<path d="M422.304,144.895c1.515-1.997,2.006-4.587,1.328-7c-0.516-1.889-0.767-3.841-0.744-5.8c0-13.255,10.745-24,24-24
				s24,10.745,24,24h16c0-22.091-17.909-40-40-40c-22.091,0-40,17.909-40,40h-8v16h17.04
				C418.438,148.087,420.798,146.902,422.304,144.895z"/>
			<rect x="326.888" y="132.095" width="24" height="16"/>
			<path d="M166.888,140.095v32h16v-24h16v-16h-24C170.47,132.095,166.888,135.676,166.888,140.095z"/>
			<path d="M166.888,300.095v32c0,4.418,3.582,8,8,8h16v-16h-8v-24H166.888z"/>
			<path d="M278.888,396.095v24h16v-16h8v-16h-16C282.47,388.095,278.888,391.676,278.888,396.095z"/>
			<rect x="342.888" y="388.095" width="16" height="16"/>
			<path d="M454.888,420.095h-24v-24c0-4.418-3.582-8-8-8h-24v16h16v24c0,4.418,3.582,8,8,8h28.688l29.656,29.656l11.312-11.312
				l-32-32C459.044,420.938,457.01,420.095,454.888,420.095z"/>
		</g>
	</g>
</g>
<g>
</g>
<g>
</g>
<g>
</g>
<g>
</g>
<g>
</g>
<g>
</g>
<g>
</g>
<g>
</g>
<g>
</g>
<g>
</g>
<g>
</g>
<g>
</g>
<g>
</g>
<g>
</g>
<g>
</g>
</svg>
