<?xml version="1.0" encoding="iso-8859-1"?>
<!-- Generator: Adobe Illustrator 19.0.0, SVG Export Plug-In . SVG Version: 6.00 Build 0)  -->
<svg version="1.1" id="Capa_1" xmlns="http://www.w3.org/2000/svg" xmlns:xlink="http://www.w3.org/1999/xlink" x="0px" y="0px"
	 viewBox="0 0 491.312 491.312" style="enable-background:new 0 0 491.312 491.312;" xml:space="preserve">
<g>
	<g>
		<g>
			<path d="M381.656,214.595L400,232.939c3.124,3.123,8.188,3.123,11.312,0l18.344-18.344L480,264.939l11.312-11.312l-104-104
				c-3.124-3.123-8.188-3.123-11.312,0l-42.344,42.344l-82.344-82.344c-3.124-3.123-8.188-3.123-11.312,0l-82.344,82.344
				l-42.344-42.344c-3.124-3.123-8.188-3.123-11.312,0l-104,104l11.312,11.312l50.344-50.344L80,232.939
				c3.124,3.123,8.188,3.123,11.312,0l18.344-18.344l12.688,12.688L0,349.627l11.312,11.312l128-128l18.344-18.344L176,232.939
				c3.124,3.123,8.188,3.123,11.312,0l26.344-26.344L240,232.939c3.124,3.123,8.188,3.123,11.312,0l26.344-26.344L304,232.939
				c3.124,3.123,8.188,3.123,11.312,0l18.344-18.344L352,232.939l128,128l11.312-11.312L368.968,227.283L381.656,214.595z
				 M133.656,215.971l-18.344-18.344c-3.124-3.123-8.188-3.123-11.312,0l-18.344,18.344l-12.688-12.688l36.688-36.688l36.688,36.688
				L133.656,215.971z M309.656,215.971l-26.344-26.344c-3.124-3.123-8.188-3.123-11.312,0l-26.344,26.344l-26.344-26.344
				c-3.124-3.123-8.188-3.123-11.312,0l-26.344,26.344l-12.688-12.688l76.688-76.688l76.688,76.688L309.656,215.971z
				 M344.968,203.283l36.688-36.688l36.688,36.688l-12.688,12.688l-18.344-18.344c-3.124-3.123-8.188-3.123-11.312,0l-18.344,18.344
				L344.968,203.283z"/>
			<path d="M365.656,107.283h80c22.091,0.442,40.358-17.109,40.8-39.2c0.442-22.091-17.109-40.358-39.2-40.8
				C434.027,4.31,404.679-3.588,381.706,9.641c-12.7,7.313-21.363,20.028-23.522,34.523c-17.187,4.116-27.783,21.386-23.667,38.573
				C337.966,97.138,350.847,107.292,365.656,107.283z M365.656,59.283c4.418,0,8-3.582,8-8
				c0.016-17.673,14.356-31.987,32.029-31.971c12.749,0.012,24.276,7.59,29.339,19.291c1.396,3.15,4.629,5.075,8.064,4.8
				c0.832-0.048,1.768-0.12,2.568-0.12c13.255,0,24,10.745,24,24s-10.745,24-24,24h-80c-8.837,0-16-7.163-16-16
				S356.819,59.283,365.656,59.283z"/>
			<path d="M45.656,107.283h80c17.673,0.011,32.009-14.308,32.019-31.981c0.009-14.809-10.145-27.69-24.547-31.139
				c-3.907-26.22-28.329-44.309-54.549-40.402C64.084,5.92,51.369,14.584,44.056,27.283c-22.091,0.442-39.642,18.709-39.2,40.8
				S23.565,107.725,45.656,107.283z M45.656,43.283c0.8,0,1.736,0.072,3.28,0.16c3.188,0.008,6.077-1.878,7.352-4.8
				c7.019-16.22,25.857-23.678,42.077-16.659c11.688,5.058,19.264,16.564,19.291,29.299c0,4.418,3.582,8,8,8c8.837,0,16,7.163,16,16
				s-7.163,16-16,16h-80c-13.255,0-24-10.745-24-24S32.401,43.283,45.656,43.283z"/>
			<path d="M456.272,459.339c11.232-23.627,4.609-51.881-15.952-68.056c11.07-19.118,4.545-43.59-14.573-54.659
				c-19.118-11.07-43.59-4.545-54.659,14.573c-7.179,12.398-7.179,27.689,0,40.087c-1.632,1.283-3.192,2.656-4.672,4.112
				c-2.601-2.593-5.452-4.922-8.512-6.952c5.031-16.942-4.625-34.754-21.566-39.786c-16.942-5.031-34.755,4.625-39.786,21.567
				c-1.765,5.945-1.765,12.274,0,18.219c-3.723,2.435-7.14,5.309-10.176,8.56c-1.898-2.059-3.949-3.971-6.136-5.72
				c11.066-19.12,4.536-43.591-14.584-54.656S222.066,332.09,211,351.211c-7.173,12.395-7.173,27.678,0,40.073
				c-1.889,1.504-3.68,3.129-5.36,4.864c-2.811-2.903-5.934-5.487-9.312-7.704c5.039-16.94-4.609-34.756-21.549-39.795
				c-16.94-5.038-34.756,4.609-39.795,21.549c-1.771,5.953-1.771,12.293,0,18.246c-3.381,2.218-6.509,4.798-9.328,7.696
				c-1.676-1.734-3.464-3.356-5.352-4.856c11.07-19.118,4.545-43.59-14.573-54.659c-19.118-11.07-43.59-4.545-54.659,14.573
				c-7.179,12.398-7.179,27.689,0,40.087c-20.561,16.175-27.184,44.429-15.952,68.056c-7.555,5.303-14.226,11.763-19.768,19.144
				l12.8,9.6c5.858-7.795,13.247-14.312,21.712-19.152c3.835-2.195,5.164-7.083,2.969-10.917c-0.1-0.176-0.208-0.347-0.321-0.515
				c-4.446-6.555-6.819-14.295-6.808-22.216c0.006-14.558,7.92-27.963,20.664-35c3.868-2.135,5.274-7.001,3.139-10.87
				c-0.326-0.59-0.724-1.136-1.187-1.626c-9.139-9.601-8.764-24.792,0.837-33.931c9.601-9.139,24.792-8.764,33.931,0.837
				c8.821,9.268,8.821,23.826,0,33.094c-3.033,3.213-2.887,8.276,0.326,11.309c0.49,0.463,1.036,0.861,1.626,1.187
				c12.744,7.037,20.658,20.442,20.664,35c0.017,7.923-2.347,15.668-6.784,22.232c-2.481,3.656-1.528,8.631,2.128,11.112
				c0.167,0.113,0.338,0.22,0.512,0.32c8.457,4.838,15.84,11.349,21.696,19.136l12.8-9.6c-5.545-7.367-12.216-13.814-19.768-19.104
				c7.578-15.875,7.21-34.398-0.992-49.96c3.674-4.349,8.238-7.86,13.384-10.296c3.999-1.879,5.716-6.645,3.837-10.643
				c-0.151-0.322-0.324-0.634-0.517-0.933c-1.563-2.47-2.377-5.341-2.344-8.264c0-8.837,7.163-16,16-16s16,7.163,16,16
				c0.03,2.908-0.778,5.763-2.328,8.224c-2.395,3.713-1.326,8.664,2.387,11.059c0.299,0.193,0.611,0.366,0.933,0.517
				c5.154,2.437,9.726,5.951,13.408,10.304c-8.202,15.559-8.57,34.079-0.992,49.952c-7.571,5.297-14.256,11.758-19.808,19.144
				l12.8,9.6c5.864-7.793,13.254-14.31,21.72-19.152c3.835-2.195,5.164-7.083,2.969-10.917c-0.101-0.176-0.208-0.347-0.321-0.515
				c-4.432-6.559-6.79-14.3-6.768-22.216c0.006-14.558,7.92-27.963,20.664-35c3.868-2.135,5.274-7.001,3.139-10.87
				c-0.326-0.59-0.724-1.136-1.187-1.626c-9.139-9.601-8.764-24.792,0.837-33.931c9.601-9.139,24.792-8.764,33.931,0.837
				c8.821,9.268,8.821,23.826,0,33.094c-3.033,3.213-2.887,8.276,0.326,11.309c0.49,0.463,1.036,0.861,1.626,1.187
				c12.744,7.037,20.658,20.442,20.664,35c0.023,7.924-2.341,15.671-6.784,22.232c-2.481,3.656-1.528,8.631,2.128,11.112
				c0.167,0.113,0.338,0.22,0.512,0.32c8.454,4.833,15.829,11.346,21.672,19.136l12.8-9.6c-5.542-7.375-12.216-13.825-19.776-19.112
				c7.37-15.46,7.243-33.446-0.344-48.8c3.842-4.887,8.773-8.807,14.4-11.448c3.999-1.879,5.716-6.645,3.837-10.643
				c-0.151-0.322-0.324-0.634-0.517-0.933c-1.557-2.472-2.366-5.342-2.328-8.264c0-8.837,7.163-16,16-16s16,7.163,16,16
				c0.033,2.907-0.773,5.762-2.32,8.224c-2.396,3.712-1.33,8.664,2.382,11.06c0.298,0.192,0.609,0.365,0.93,0.516
				c4.728,2.252,8.964,5.417,12.464,9.312c-8.722,15.733-9.297,34.712-1.544,50.944c-7.572,5.299-14.259,11.76-19.816,19.144
				l12.8,9.6c5.858-7.795,13.247-14.312,21.712-19.152c3.835-2.195,5.164-7.083,2.969-10.917c-0.101-0.176-0.208-0.347-0.321-0.515
				c-4.446-6.555-6.819-14.295-6.808-22.216c0.006-14.558,7.92-27.963,20.664-35c3.868-2.135,5.274-7.001,3.139-10.87
				c-0.326-0.59-0.724-1.136-1.187-1.626c-9.139-9.601-8.764-24.792,0.837-33.931c9.601-9.139,24.792-8.764,33.931,0.837
				c8.821,9.268,8.821,23.826,0,33.094c-3.033,3.213-2.887,8.276,0.326,11.309c0.49,0.463,1.036,0.861,1.626,1.187
				c12.744,7.037,20.658,20.442,20.664,35c0.017,7.923-2.347,15.668-6.784,22.232c-2.481,3.656-1.528,8.631,2.128,11.112
				c0.167,0.113,0.338,0.22,0.512,0.32c8.457,4.838,15.84,11.349,21.696,19.136l12.8-9.6
				C470.509,471.101,463.832,464.64,456.272,459.339z"/>
			<polygon points="397.704,431.971 387.36,421.627 376.048,432.939 397.704,454.595 397.704,483.283 413.704,483.283 
				413.704,371.283 397.704,371.283 			"/>
			<polygon points="237.624,431.971 227.28,421.627 215.968,432.939 237.624,454.595 237.624,483.283 253.624,483.283 
				253.624,371.283 237.624,371.283 			"/>
			<polygon points="77.704,431.971 67.36,421.627 56.048,432.939 77.704,454.595 77.704,483.283 93.704,483.283 93.704,371.283 
				77.704,371.283 			"/>
			<rect x="157.656" y="403.283" width="16" height="80"/>
			<rect x="319.256" y="403.283" width="16" height="80"/>
		</g>
	</g>
</g>
<g>
</g>
<g>
</g>
<g>
</g>
<g>
</g>
<g>
</g>
<g>
</g>
<g>
</g>
<g>
</g>
<g>
</g>
<g>
</g>
<g>
</g>
<g>
</g>
<g>
</g>
<g>
</g>
<g>
</g>
</svg>
